<?xml version="1.0" standalone="no"?>
<!DOCTYPE svg PUBLIC "-//W3C//DTD SVG 20010904//EN"
 "http://www.w3.org/TR/2001/REC-SVG-20010904/DTD/svg10.dtd">
<svg version="1.0" xmlns="http://www.w3.org/2000/svg"
 width="400.000000pt" height="376.000000pt" viewBox="0 0 400.000000 376.000000"
 preserveAspectRatio="xMidYMid meet">

<g transform="translate(0.000000,376.000000) scale(0.100000,-0.100000)"
fill="#000000" stroke="none">
<path d="M1613 3383 c-40 -40 -63 -79 -63 -106 0 -30 16 -44 55 -49 29 -3 30
-5 27 -48 -2 -25 -7 -49 -12 -54 -6 -6 -10 -17 -10 -26 1 -28 -75 -162 -114
-201 -35 -36 -43 -39 -92 -39 -50 0 -57 3 -94 40 -22 22 -40 45 -40 50 0 6 -7
10 -15 10 -8 0 -16 8 -16 18 -1 9 -5 -12 -10 -47 -11 -84 -35 -111 -98 -111
-44 0 -90 18 -168 65 -18 11 -33 23 -33 28 0 4 -9 7 -20 7 -24 0 -22 -8 45
-150 6 -14 20 -52 30 -85 27 -89 44 -125 60 -125 7 0 28 8 47 17 18 9 45 22
60 30 14 7 34 13 45 13 10 0 30 6 44 14 14 7 50 16 80 20 29 4 57 13 61 19 10
17 525 17 559 0 13 -7 49 -17 79 -23 85 -16 149 -35 162 -48 7 -7 21 -12 33
-12 11 0 26 -4 34 -9 23 -15 40 -1 47 37 4 21 13 46 20 57 8 11 14 27 14 36 0
10 6 30 14 46 7 15 21 44 29 63 9 19 23 52 33 73 9 21 14 41 10 44 -3 3 -6 1
-6 -5 0 -7 -4 -12 -9 -12 -6 0 -30 -13 -54 -30 -25 -16 -49 -30 -55 -30 -5 0
-15 -7 -22 -15 -12 -14 -90 -31 -125 -26 -42 5 -66 44 -74 117 -5 56 -8 64
-15 44 -5 -14 -30 -46 -56 -72 -44 -44 -51 -48 -97 -48 -64 0 -109 31 -145
100 -7 14 -19 31 -25 38 -7 7 -13 20 -13 29 0 8 -6 27 -14 41 -8 15 -22 53
-32 85 -20 63 -14 77 32 77 44 0 59 56 27 99 -32 41 -72 81 -82 81 -6 0 -23
-12 -38 -27z"/>
<path d="M1175 3134 c-8 -9 -15 -29 -15 -45 0 -26 3 -29 34 -29 66 0 84 22 48
58 -28 28 -50 33 -67 16z"/>
<path d="M2075 3125 c-35 -34 -29 -59 14 -63 51 -5 59 1 52 45 -8 47 -31 54
-66 18z"/>
<path d="M793 3054 c-7 -3 -13 -23 -13 -45 0 -38 0 -39 38 -39 27 1 41 7 54
24 16 22 16 25 0 39 -19 18 -61 28 -79 21z"/>
<path d="M2433 3033 c-31 -21 -29 -28 12 -53 44 -27 65 -15 65 36 0 31 -3 34
-27 33 -16 0 -38 -7 -50 -16z"/>
<path d="M1476 2593 c-4 -4 -42 -13 -84 -20 -118 -19 -190 -37 -204 -51 -6 -6
-19 -12 -28 -12 -37 0 -227 -111 -298 -174 -75 -67 -182 -182 -182 -195 0 -5
-12 -26 -27 -47 -16 -22 -39 -62 -52 -89 -13 -28 -30 -62 -38 -77 -7 -14 -13
-35 -13 -45 0 -10 -6 -25 -12 -31 -48 -48 -70 -470 -32 -609 8 -28 14 -67 14
-86 0 -19 7 -40 15 -47 8 -7 15 -20 15 -29 0 -9 7 -29 15 -45 8 -15 15 -34 15
-41 0 -8 6 -20 14 -27 7 -8 17 -25 21 -38 4 -13 11 -28 16 -34 5 -6 42 -54 82
-107 65 -86 93 -115 207 -211 17 -16 38 -28 46 -28 7 0 17 -6 21 -12 15 -25
177 -97 263 -118 220 -55 418 -72 524 -46 34 9 78 16 98 16 20 0 60 7 89 16
30 8 65 18 79 22 30 9 33 35 5 40 -11 2 -28 11 -37 19 -13 11 -32 13 -85 8
-177 -17 -398 -4 -426 24 -6 6 -20 11 -32 11 -12 0 -51 15 -87 34 -171 88
-330 255 -409 432 -12 27 -26 56 -30 64 -11 19 -13 23 -32 90 -32 116 -39 147
-49 225 -12 97 -3 472 12 490 5 6 13 34 17 61 3 26 12 59 20 74 7 14 13 35 13
46 0 12 7 27 15 34 8 7 15 19 15 28 0 13 29 66 52 97 39 51 97 114 127 137 20
16 45 35 55 43 37 28 142 72 211 89 130 30 356 17 460 -28 31 -14 104 -49 158
-78 47 -24 187 -165 228 -228 52 -83 57 -90 85 -150 48 -103 54 -118 54 -135
0 -9 5 -26 11 -37 6 -11 15 -44 19 -72 5 -28 13 -71 19 -96 13 -59 13 -367 0
-450 -5 -36 -13 -89 -18 -118 -4 -29 -13 -58 -19 -64 -7 -7 -12 -23 -12 -36 0
-13 -6 -38 -14 -55 -47 -102 -48 -107 -23 -128 12 -10 33 -22 47 -26 14 -3 34
-12 45 -19 11 -6 34 -15 51 -19 29 -6 35 -2 70 42 22 26 45 52 52 56 6 4 12
13 12 19 0 5 13 30 30 55 16 24 30 50 30 57 0 8 6 19 14 25 8 7 18 26 21 42 4
16 11 31 16 34 5 4 9 15 9 26 0 11 7 34 16 51 9 17 20 54 24 82 5 28 13 69 19
91 14 52 14 388 0 440 -6 22 -15 63 -20 91 -5 28 -16 64 -24 80 -8 16 -15 35
-15 41 0 19 -68 141 -116 209 -41 58 -113 132 -179 187 -39 32 -179 117 -193
117 -6 0 -23 6 -39 14 -95 46 -141 60 -267 77 -38 5 -77 14 -87 19 -20 11
-372 14 -383 3z"/>
<path d="M1715 801 l-40 -18 28 -8 c15 -4 27 -10 27 -14 0 -3 21 -17 48 -30
26 -14 52 -29 57 -35 6 -6 36 -25 69 -41 32 -17 68 -36 80 -43 71 -45 233
-128 331 -172 28 -12 62 -28 77 -36 14 -8 35 -14 46 -14 11 0 25 -7 32 -15 7
-8 26 -15 42 -15 17 0 42 -6 56 -14 37 -19 103 -35 192 -47 41 -5 100 -14 131
-19 71 -13 326 -13 398 0 31 5 88 14 126 19 77 11 174 32 190 42 6 4 29 10 52
14 23 3 47 13 54 21 6 8 21 14 33 14 28 0 196 72 190 82 -6 10 -63 -1 -90 -17
-27 -17 -118 -33 -297 -52 -135 -15 -163 -15 -320 -1 -170 16 -310 40 -331 57
-6 5 -24 11 -41 14 -16 3 -50 12 -75 21 -42 16 -65 25 -145 61 -16 7 -48 21
-70 30 -22 10 -47 22 -55 26 -8 5 -26 14 -40 20 -78 33 -100 44 -100 51 0 4
-7 8 -16 8 -9 0 -28 7 -42 15 -15 8 -49 24 -77 35 -27 12 -59 25 -70 31 -61
29 -139 42 -270 45 -121 4 -145 2 -180 -15z"/>
<path d="M3945 490 c-3 -5 -1 -10 4 -10 6 0 11 5 11 10 0 6 -2 10 -4 10 -3 0
-8 -4 -11 -10z"/>
</g>
</svg>
